<svg width="56" height="56" viewBox="0 0 56 56" fill="none" xmlns="http://www.w3.org/2000/svg">
<path d="M51.5936 16.0651C51.9904 17.1373 50.7717 19.6392 47.9375 23.5708C47.5407 24.1069 47.0306 24.8217 46.4071 25.7153C45.1034 27.3832 44.3665 28.4852 44.1964 29.0214C43.913 29.7362 44.0264 30.4212 44.5365 31.0765C44.8199 31.4339 45.4718 32.1487 46.4921 33.221H46.5771V33.3103C48.9011 35.5144 50.4599 37.3908 51.2535 38.9396L51.4235 39.297L51.5936 39.9672V40.8161L50.9984 41.4862L49.553 41.799L43.3462 41.9777C42.9494 42.0372 42.4818 41.9777 41.9433 41.799C41.4048 41.6202 40.9938 41.4415 40.7104 41.2628L40.2003 40.9054C39.6901 40.548 39.1233 40.0119 38.4998 39.297C37.8762 38.5822 37.3236 37.927 36.8418 37.3313C36.36 36.7356 35.864 36.2441 35.3538 35.8569C34.8437 35.4697 34.3902 35.3357 33.9934 35.4548C33.9368 35.4548 33.8659 35.4846 33.7809 35.5442C33.6959 35.6038 33.5542 35.7378 33.3558 35.9463C33.1574 36.1548 32.9873 36.4079 32.8456 36.7058C32.7039 37.0036 32.5764 37.4355 32.463 38.0014C32.3496 38.5673 32.293 39.2375 32.293 40.0119C32.293 40.2502 32.2646 40.4735 32.2079 40.682C32.1512 40.8905 32.0946 41.0543 32.0379 41.1735L31.9529 41.2628C31.6128 41.6202 31.1593 41.799 30.5925 41.799H27.8717C26.6813 41.9181 25.4768 41.799 24.2581 41.4415C23.0394 41.0841 21.9766 40.6225 21.0697 40.0566C20.1628 39.4906 19.3408 38.9247 18.604 38.3588C17.8671 37.7929 17.3003 37.3015 16.9035 36.8845L16.3083 36.259C16.1382 36.1399 15.9115 35.9016 15.6281 35.5442C15.3447 35.1868 14.7637 34.4124 13.8851 33.221C13.0065 32.0296 12.1421 30.7489 11.2918 29.3788C10.4416 28.0087 9.44963 26.2067 8.31597 23.9729C7.1823 21.739 6.13366 19.4307 5.17005 17.048C5.05668 16.7501 5 16.5118 5 16.3331C5 16.1544 5.02834 16.0055 5.08502 15.8864L5.17005 15.797C5.39678 15.4396 5.85025 15.2609 6.53045 15.2609H13.2474C13.4175 15.2609 13.5875 15.3056 13.7576 15.3949L14.1827 15.6183L14.2677 15.7076C14.5511 15.8864 14.7495 16.1544 14.8629 16.5118C15.203 17.3458 15.5856 18.2244 16.0107 19.1478C16.4358 20.0711 16.7618 20.771 16.9885 21.2476L17.3286 21.9624C17.8387 22.9751 18.3064 23.8537 18.7315 24.5984C19.1566 25.343 19.5392 25.9238 19.8793 26.3407C20.2194 26.7577 20.5595 27.0854 20.8996 27.3236C21.2397 27.5619 21.5231 27.6811 21.7499 27.6811C21.9766 27.6811 22.2033 27.6513 22.4301 27.5917L22.5151 27.4577L22.8127 26.8769L23.1528 25.7153L23.3654 23.6601V20.4434C23.3087 19.7881 23.2236 19.1776 23.1103 18.6116C22.9969 18.0457 22.8835 17.6436 22.7702 17.4054L22.6852 17.1373C22.2884 16.5416 21.5798 16.1544 20.5595 15.9757C20.3895 15.9757 20.4462 15.7672 20.7296 15.3502C21.013 15.0524 21.3248 14.8141 21.6649 14.6354C22.5151 14.1589 24.4423 13.9504 27.4465 14.0099C28.7503 14.0099 29.8556 14.1291 30.7625 14.3673C31.0459 14.4269 31.301 14.5312 31.5277 14.6801C31.7545 14.829 31.9245 15.0375 32.0379 15.3056C32.1512 15.5736 32.2363 15.8417 32.293 16.1097C32.3496 16.3778 32.378 16.765 32.378 17.2713V18.6563C32.3213 19.1329 32.293 19.7286 32.293 20.4434V22.5879C32.293 22.7666 32.2788 23.124 32.2504 23.6601C32.2221 24.1963 32.2079 24.6132 32.2079 24.9111C32.2079 25.2089 32.2363 25.5515 32.293 25.9387C32.3496 26.3259 32.4488 26.6535 32.5905 26.9215C32.7322 27.1896 32.9165 27.3832 33.1432 27.5023C33.2566 27.5619 33.3841 27.6066 33.5258 27.6364C33.6675 27.6662 33.8801 27.5768 34.1635 27.3683C34.4469 27.1598 34.7587 26.862 35.0988 26.4748C35.4389 26.0876 35.864 25.5068 36.3741 24.7324C36.8843 23.958 37.4228 23.0644 37.9896 22.0518C38.9532 20.2647 39.8318 18.3287 40.6254 16.2438C40.6821 16.1246 40.7529 15.9906 40.8379 15.8417C40.923 15.6928 41.0222 15.5885 41.1355 15.5289H41.2206L41.3056 15.4396L41.6457 15.3502H42.1558L49.1279 15.2609C49.7514 15.2013 50.2757 15.2311 50.7008 15.3502C51.1259 15.4694 51.3668 15.6183 51.4235 15.797L51.5936 16.0651Z" fill="#6A2FB1"/>
</svg>
