<svg width="158" height="50" viewBox="0 0 158 50" fill="none" xmlns="http://www.w3.org/2000/svg">
<path d="M153.062 49.375H4.9375C2.22187 49.375 0 47.1531 0 44.4375V4.9375C0 2.22187 2.22187 0 4.9375 0H153.062C155.778 0 158 2.22187 158 4.9375V44.4375C158 47.1531 155.778 49.375 153.062 49.375Z" fill="black"/>
<path d="M33.328 24.4407C33.328 20.6141 36.5374 18.7625 36.6609 18.6391C34.8093 16.0469 32.0937 15.6766 31.1062 15.5532C28.7609 15.3063 26.4155 16.911 25.3046 16.911C24.0702 16.911 22.2187 15.5532 20.2437 15.5532C17.6515 15.5532 15.3062 17.0344 13.9484 19.3797C11.2327 24.0704 13.2077 30.9829 15.7999 34.8094C17.1577 36.661 18.639 38.7594 20.614 38.636C22.589 38.5125 23.3296 37.4016 25.6749 37.4016C28.0202 37.4016 28.6374 38.636 30.7359 38.636C32.8343 38.636 34.1921 36.7844 35.4265 34.9328C36.9077 32.8344 37.5249 30.736 37.5249 30.6125C37.4015 30.4891 33.328 29.0079 33.328 24.4407Z" fill="white"/>
<path d="M29.5015 13.0844C30.489 11.7265 31.2296 9.99841 31.1062 8.14685C29.6249 8.27029 27.6499 9.13435 26.6624 10.4922C25.6749 11.6031 24.8109 13.4547 25.0577 15.1828C26.6624 15.3062 28.3906 14.3187 29.5015 13.0844Z" fill="white"/>
<path d="M61.4719 38.3891H58.7563L57.275 33.6985H52.0906L50.7328 38.3891H48.1406L53.325 22.4656H56.5344L61.4719 38.3891ZM56.7812 31.7235L55.4234 27.5266C55.3 27.1563 55.0531 26.0453 54.5594 24.5641C54.4359 25.1813 54.1891 26.2922 53.8188 27.5266L52.4609 31.7235H56.7812Z" fill="white"/>
<path d="M74.6797 32.5875C74.6797 34.5625 74.1859 36.0438 73.075 37.2781C72.0875 38.2656 70.9766 38.7594 69.4953 38.7594C68.0141 38.7594 66.9031 38.2656 66.2859 37.1547V43.2031H63.6938V30.8594C63.6938 29.625 63.6938 28.3906 63.5703 27.0328H65.7922L65.9156 28.8844C66.7797 27.5266 68.0141 26.7859 69.7422 26.7859C71.1 26.7859 72.2109 27.2797 73.075 28.3906C74.1859 29.3781 74.6797 30.736 74.6797 32.5875ZM72.0875 32.5875C72.0875 31.4766 71.8406 30.4891 71.3469 29.8719C70.8531 29.1313 70.1125 28.7609 69.125 28.7609C68.5078 28.7609 67.8906 29.0078 67.3969 29.3781C66.9031 29.7484 66.5328 30.3656 66.4094 30.9828C66.2859 31.3531 66.2859 31.6 66.2859 31.7235V33.6984C66.2859 34.5625 66.5328 35.1797 67.0266 35.7969C67.5203 36.4141 68.2609 36.661 69.0016 36.661C69.9891 36.661 70.7297 36.2906 71.2234 35.55C71.8406 34.8094 72.0875 33.8219 72.0875 32.5875Z" fill="white"/>
<path d="M87.8877 32.5875C87.8877 34.5625 87.3939 36.0438 86.283 37.2781C85.2955 38.2656 84.1846 38.7594 82.7033 38.7594C81.2221 38.7594 80.1111 38.2656 79.4939 37.1547V43.2031H76.9018V30.8594C76.9018 29.625 76.9018 28.3906 76.7783 27.0328H79.0002L79.1236 28.8844C79.9877 27.5266 81.2221 26.7859 82.9502 26.7859C84.308 26.7859 85.4189 27.2797 86.283 28.3906C87.3939 29.3781 87.8877 30.736 87.8877 32.5875ZM85.2955 32.5875C85.2955 31.4766 85.0486 30.4891 84.5549 29.8719C84.0611 29.1313 83.3205 28.7609 82.333 28.7609C81.7158 28.7609 81.0986 29.0078 80.6049 29.3781C80.1111 29.7484 79.7408 30.3656 79.6174 30.9828C79.4939 31.3531 79.4939 31.6 79.4939 31.7235V33.6984C79.4939 34.5625 79.7408 35.1797 80.2346 35.7969C80.7283 36.4141 81.4689 36.661 82.2096 36.661C83.1971 36.661 83.9377 36.2906 84.4314 35.55C85.0486 34.8094 85.2955 33.8219 85.2955 32.5875Z" fill="white"/>
<path d="M102.7 33.9453C102.7 35.3031 102.206 36.414 101.342 37.2781C100.354 38.2656 98.8732 38.6359 97.0217 38.6359C95.2936 38.6359 93.9357 38.2656 92.9482 37.6484L93.5654 35.55C94.6764 36.1672 95.9107 36.5375 97.2686 36.5375C98.2561 36.5375 98.9967 36.2906 99.4904 35.9203C99.9842 35.4265 100.231 34.9328 100.231 34.1922C100.231 33.575 99.9842 32.9578 99.6139 32.5875C99.1201 32.0937 98.3795 31.7234 97.392 31.3531C94.5529 30.3656 93.1951 28.7609 93.1951 26.7859C93.1951 25.4281 93.6889 24.4406 94.6764 23.5765C95.6639 22.7125 96.8982 22.3422 98.6264 22.3422C100.108 22.3422 101.219 22.589 102.206 23.0828L101.589 25.1812C100.725 24.6875 99.7373 24.4406 98.5029 24.4406C97.6389 24.4406 96.8982 24.6875 96.4045 25.0578C96.0342 25.4281 95.7873 25.9219 95.7873 26.539C95.7873 27.1562 96.0342 27.65 96.5279 28.1437C96.8982 28.514 97.7623 28.8843 98.8732 29.3781C100.231 29.8718 101.219 30.6125 101.959 31.3531C102.329 31.9703 102.7 32.8343 102.7 33.9453Z" fill="white"/>
<path d="M111.094 28.8844H108.254V34.4391C108.254 35.7969 108.748 36.5375 109.736 36.5375C110.23 36.5375 110.6 36.5375 110.847 36.4141L110.97 38.3891C110.476 38.6359 109.859 38.6359 108.995 38.6359C108.008 38.6359 107.144 38.3891 106.65 37.7719C106.033 37.1547 105.786 36.1672 105.786 34.6859V28.8844H104.058V26.9094H105.786V24.8109L108.254 24.0703V26.9094H111.094V28.8844Z" fill="white"/>
<path d="M123.808 32.5875C123.808 34.3156 123.314 35.7969 122.327 36.9078C121.216 38.0187 119.858 38.6359 118.13 38.6359C116.402 38.6359 115.044 38.0187 114.056 36.9078C113.069 35.7969 112.575 34.439 112.575 32.7109C112.575 30.9828 113.069 29.5015 114.18 28.3906C115.167 27.2797 116.649 26.6625 118.377 26.6625C120.105 26.6625 121.463 27.2797 122.45 28.3906C123.314 29.5015 123.808 30.8594 123.808 32.5875ZM121.092 32.7109C121.092 31.6 120.846 30.7359 120.352 29.9953C119.858 29.1312 118.994 28.6375 118.006 28.6375C117.019 28.6375 116.155 29.1312 115.661 29.9953C115.167 30.7359 114.921 31.7234 114.921 32.7109C114.921 33.8219 115.167 34.6859 115.661 35.4265C116.155 36.2906 117.019 36.7843 118.006 36.7843C118.994 36.7843 119.735 36.2906 120.352 35.4265C120.846 34.6859 121.092 33.6984 121.092 32.7109Z" fill="white"/>
<path d="M132.078 29.1312C131.831 29.1312 131.584 29.0078 131.214 29.0078C130.35 29.0078 129.609 29.3781 129.116 29.9953C128.745 30.6125 128.498 31.3531 128.498 32.2172V38.2656H125.906V30.3656C125.906 29.0078 125.906 27.8969 125.783 26.7859H128.005L128.128 29.0078H128.251C128.498 28.2672 128.992 27.65 129.486 27.1562C130.103 26.7859 130.72 26.5391 131.337 26.5391C131.584 26.5391 131.831 26.5391 131.955 26.5391V29.1312H132.078Z" fill="white"/>
<path d="M143.434 32.0937C143.434 32.5875 143.434 32.9578 143.311 33.2047H135.658C135.658 34.3156 136.028 35.1797 136.769 35.7969C137.386 36.2906 138.25 36.6609 139.237 36.6609C140.348 36.6609 141.459 36.5375 142.323 36.1672L142.694 37.8953C141.583 38.389 140.348 38.6359 138.867 38.6359C137.139 38.6359 135.658 38.1422 134.67 37.0312C133.683 36.0437 133.189 34.5625 133.189 32.8343C133.189 31.1062 133.683 29.625 134.547 28.514C135.534 27.2797 136.892 26.6625 138.62 26.6625C140.225 26.6625 141.583 27.2797 142.323 28.514C143.187 29.5015 143.434 30.7359 143.434 32.0937ZM141.089 31.4765C141.089 30.7359 140.966 30.1187 140.595 29.5015C140.101 28.7609 139.484 28.3906 138.62 28.3906C137.756 28.3906 137.139 28.7609 136.645 29.3781C136.275 29.8719 136.028 30.6125 135.905 31.3531H141.089V31.4765Z" fill="white"/>
<path d="M56.0408 12.7141C56.0408 14.0719 55.6705 15.1828 54.8064 15.9234C54.0658 16.5406 52.9549 16.9109 51.4736 16.9109C50.733 16.9109 50.1158 16.9109 49.6221 16.7875V9.13436C50.2393 9.01093 50.9799 9.01093 51.8439 9.01093C53.2018 9.01093 54.1893 9.2578 54.9299 9.87499C55.5471 10.4922 56.0408 11.4797 56.0408 12.7141ZM54.683 12.7141C54.683 11.85 54.4361 11.1094 53.9424 10.6156C53.4486 10.1219 52.708 9.87499 51.8439 9.87499C51.4736 9.87499 51.1033 9.87499 50.8564 9.99843V15.8C50.9799 15.8 51.3502 15.8 51.7205 15.8C52.708 15.8 53.4486 15.5531 53.9424 15.0594C54.4361 14.5656 54.683 13.7016 54.683 12.7141Z" fill="white"/>
<path d="M62.9531 13.9485C62.9531 14.8125 62.7063 15.5532 62.2125 16.0469C61.7188 16.6641 60.9781 16.911 60.1141 16.911C59.25 16.911 58.6328 16.6641 58.1391 16.0469C57.6453 15.5532 57.3984 14.8125 57.3984 13.9485C57.3984 13.0844 57.6453 12.3438 58.1391 11.85C58.6328 11.2328 59.3734 10.986 60.2375 10.986C61.1016 10.986 61.7188 11.2328 62.2125 11.85C62.7063 12.3438 62.9531 13.0844 62.9531 13.9485ZM61.7188 13.9485C61.7188 13.4547 61.5953 12.961 61.3484 12.5907C61.1016 12.0969 60.7313 11.9735 60.2375 11.9735C59.7438 11.9735 59.3734 12.2203 59.1266 12.5907C58.8797 12.961 58.7563 13.4547 58.7563 13.9485C58.7563 14.4422 58.8797 14.936 59.1266 15.3063C59.3734 15.8 59.7438 15.9235 60.2375 15.9235C60.7313 15.9235 61.1016 15.6766 61.3484 15.1828C61.5953 14.936 61.7188 14.4422 61.7188 13.9485Z" fill="white"/>
<path d="M72.4578 11.1094L70.7297 16.7875H69.6187L68.8781 14.3188C68.6312 13.7016 68.5078 13.0844 68.3844 12.4672C68.2609 13.0844 68.1375 13.7016 67.8906 14.3188L67.15 16.7875H66.0391L64.1875 11.1094H65.4219L66.0391 13.825C66.1625 14.4422 66.2859 15.0594 66.4094 15.6766C66.5328 15.1828 66.6563 14.5656 66.9031 13.825L67.6438 11.1094H68.6313L69.3719 13.7016C69.6188 14.3188 69.7422 14.9359 69.8656 15.5531C69.9891 14.9359 70.1125 14.3188 70.2359 13.7016L70.9766 11.1094H72.4578Z" fill="white"/>
<path d="M78.8766 16.7875H77.6422V13.5781C77.6422 12.5906 77.2719 12.0969 76.5312 12.0969C76.1609 12.0969 75.9141 12.2203 75.6672 12.4672C75.4203 12.714 75.2969 13.0844 75.2969 13.4547V16.7875H74.0625V12.714C74.0625 12.2203 74.0625 11.7265 74.0625 11.1094H75.1734V11.9734C75.2969 11.7266 75.5437 11.4797 75.7906 11.2328C76.1609 10.9859 76.5312 10.8625 76.9016 10.8625C77.3953 10.8625 77.8891 10.9859 78.2594 11.3562C78.7531 11.7266 78.8766 12.3437 78.8766 13.2078V16.7875Z" fill="white"/>
<path d="M82.333 16.7875H81.0986V8.51721H82.333V16.7875Z" fill="white"/>
<path d="M89.7393 13.9485C89.7393 14.8125 89.4924 15.5532 88.9986 16.0469C88.5049 16.6641 87.7643 16.911 86.9002 16.911C86.0361 16.911 85.4189 16.6641 84.9252 16.0469C84.4314 15.5532 84.1846 14.8125 84.1846 13.9485C84.1846 13.0844 84.4314 12.3438 84.9252 11.85C85.4189 11.3563 86.1596 10.986 87.0236 10.986C87.8877 10.986 88.5049 11.2328 88.9986 11.85C89.4924 12.3438 89.7393 13.0844 89.7393 13.9485ZM88.5049 13.9485C88.5049 13.4547 88.3814 12.961 88.1346 12.5907C87.8877 12.0969 87.5174 11.9735 87.0236 11.9735C86.5299 11.9735 86.1596 12.2203 85.9127 12.5907C85.6658 12.961 85.5424 13.4547 85.5424 13.9485C85.5424 14.4422 85.6658 14.936 85.9127 15.3063C86.1596 15.8 86.5299 15.9235 87.0236 15.9235C87.5174 15.9235 87.8877 15.6766 88.1346 15.1828C88.3814 14.936 88.5049 14.4422 88.5049 13.9485Z" fill="white"/>
<path d="M95.7874 16.7875H94.6765L94.553 16.1703C94.1827 16.6641 93.5655 16.911 92.9483 16.911C92.4546 16.911 91.9608 16.7875 91.714 16.4172C91.4671 16.0469 91.2202 15.6766 91.2202 15.3063C91.2202 14.5657 91.4671 14.0719 92.0843 13.7016C92.7015 13.3313 93.4421 13.2078 94.553 13.2078V13.0844C94.553 12.3438 94.1827 11.9735 93.4421 11.9735C92.8249 11.9735 92.4546 12.0969 91.9608 12.3438L91.714 11.4797C92.2077 11.1094 92.8249 10.986 93.689 10.986C95.1702 10.986 95.9108 11.7266 95.9108 13.3313V15.4297C95.7874 16.0469 95.7874 16.4172 95.7874 16.7875ZM94.553 14.8125V13.9485C93.1952 13.9485 92.4546 14.3188 92.4546 15.0594C92.4546 15.3063 92.578 15.5532 92.7015 15.6766C92.8249 15.8 93.0718 15.9235 93.3187 15.9235C93.5655 15.9235 93.8124 15.8 94.0593 15.6766C94.3062 15.5532 94.4296 15.3063 94.553 15.0594C94.553 15.0594 94.553 14.936 94.553 14.8125Z" fill="white"/>
<path d="M102.947 16.7875H101.836V15.9234C101.466 16.6641 100.849 16.9109 99.9845 16.9109C99.2438 16.9109 98.7501 16.6641 98.2563 16.1703C97.7626 15.6766 97.6392 14.9359 97.6392 14.0719C97.6392 13.2078 97.886 12.4672 98.3798 11.85C98.8735 11.3563 99.4907 11.1094 100.108 11.1094C100.849 11.1094 101.342 11.3563 101.713 11.85V8.64062H102.947V15.3063C102.947 15.8 102.947 16.2938 102.947 16.7875ZM101.713 14.4422V13.4547C101.713 13.3313 101.713 13.2078 101.713 13.0844C101.589 12.8375 101.466 12.5906 101.219 12.3438C100.972 12.0969 100.725 12.0969 100.355 12.0969C99.861 12.0969 99.4907 12.3438 99.2438 12.7141C98.997 13.0844 98.8735 13.5781 98.8735 14.1953C98.8735 14.8125 98.997 15.1828 99.2438 15.5531C99.4907 15.9234 99.861 16.1703 100.355 16.1703C100.725 16.1703 101.095 16.0469 101.342 15.6766C101.589 15.1828 101.713 14.8125 101.713 14.4422Z" fill="white"/>
<path d="M113.686 13.9485C113.686 14.8125 113.439 15.5532 112.945 16.0469C112.452 16.6641 111.711 16.911 110.847 16.911C109.983 16.911 109.366 16.6641 108.872 16.0469C108.378 15.5532 108.131 14.8125 108.131 13.9485C108.131 13.0844 108.378 12.3438 108.872 11.85C109.366 11.2328 110.106 10.986 110.97 10.986C111.834 10.986 112.452 11.2328 112.945 11.85C113.439 12.3438 113.686 13.0844 113.686 13.9485ZM112.328 13.9485C112.328 13.4547 112.205 12.961 111.958 12.5907C111.711 12.0969 111.341 11.9735 110.847 11.9735C110.353 11.9735 109.983 12.2203 109.736 12.5907C109.489 12.961 109.366 13.4547 109.366 13.9485C109.366 14.4422 109.489 14.936 109.736 15.3063C109.983 15.8 110.353 15.9235 110.847 15.9235C111.341 15.9235 111.711 15.6766 111.958 15.1828C112.205 14.936 112.328 14.4422 112.328 13.9485Z" fill="white"/>
<path d="M120.475 16.7875H119.241V13.5781C119.241 12.5906 118.871 12.0969 118.13 12.0969C117.76 12.0969 117.513 12.2203 117.266 12.4672C117.019 12.714 116.896 13.0844 116.896 13.4547V16.7875H115.661V12.714C115.661 12.2203 115.661 11.7265 115.661 11.1094H116.772V11.9734C116.896 11.7266 117.142 11.4797 117.389 11.2328C117.76 10.9859 118.13 10.8625 118.5 10.8625C118.994 10.8625 119.488 10.9859 119.858 11.3562C120.352 11.7266 120.475 12.3437 120.475 13.2078V16.7875Z" fill="white"/>
<path d="M128.869 12.0969H127.511V14.8125C127.511 15.5532 127.758 15.8 128.252 15.8C128.499 15.8 128.622 15.8 128.869 15.8V16.7875C128.622 16.911 128.252 16.911 127.881 16.911C127.388 16.911 127.017 16.7875 126.771 16.4172C126.524 16.1703 126.4 15.5532 126.4 14.936V12.0969H125.536V11.1094H126.4V10.1219L127.635 9.75159V11.1094H128.992V12.0969H128.869Z" fill="white"/>
<path d="M135.534 16.7875H134.3V13.5781C134.3 12.5906 133.93 12.0969 133.189 12.0969C132.572 12.0969 132.201 12.3438 131.955 12.961C131.955 13.0844 131.955 13.2078 131.955 13.4547V16.7875H130.72V8.51721H131.955V11.9735C132.325 11.3563 132.942 10.986 133.683 10.986C134.176 10.986 134.67 11.1094 134.917 11.4797C135.287 11.85 135.534 12.5906 135.534 13.3313V16.7875Z" fill="white"/>
<path d="M142.323 13.7016C142.323 13.9484 142.323 14.0719 142.323 14.3188H138.62C138.62 14.9359 138.867 15.3063 139.114 15.5531C139.484 15.8 139.854 15.9234 140.348 15.9234C140.965 15.9234 141.459 15.8 141.829 15.6766L142.076 16.5406C141.583 16.7875 140.965 16.9109 140.225 16.9109C139.361 16.9109 138.62 16.6641 138.126 16.1703C137.633 15.6766 137.386 14.9359 137.386 14.0719C137.386 13.2078 137.633 12.4672 138.126 11.9734C138.62 11.3563 139.237 11.1094 140.101 11.1094C140.965 11.1094 141.583 11.3563 141.953 11.9734C142.2 12.3438 142.323 12.9609 142.323 13.7016ZM141.212 13.3313C141.212 12.9609 141.089 12.5906 140.965 12.3438C140.719 11.9734 140.472 11.85 139.978 11.85C139.608 11.85 139.237 11.9734 138.99 12.3438C138.744 12.5906 138.62 12.9609 138.62 13.3313H141.212Z" fill="white"/>
</svg>
