<svg width="158" height="50" viewBox="0 0 158 50" fill="none" xmlns="http://www.w3.org/2000/svg">
<path d="M153.062 49.375H4.9375C2.22187 49.375 0 47.1531 0 44.4375V4.9375C0 2.22187 2.22187 0 4.9375 0H153.062C155.778 0 158 2.22187 158 4.9375V44.4375C158 47.1531 155.778 49.375 153.062 49.375Z" fill="black"/>
<path fill-rule="evenodd" clip-rule="evenodd" d="M12.0967 24.1937V11.2328C12.0967 10.4922 12.7139 9.875 13.3311 9.875C13.9482 9.875 14.1951 9.99844 14.5654 10.2453L38.3889 23.3297C38.8826 23.5766 39.1295 23.9469 39.1295 24.3172C39.1295 24.6875 38.8826 25.0578 38.3889 25.3047L14.5654 38.3891C14.3186 38.5125 13.9482 38.7594 13.3311 38.7594C12.7139 38.7594 12.0967 38.1422 12.0967 37.4016V24.1937Z" fill="url(#paint0_linear_151_33)"/>
<path fill-rule="evenodd" clip-rule="evenodd" d="M27.5267 24.3172L13.0845 9.875C13.2079 9.875 13.2079 9.875 13.3313 9.875C13.9485 9.875 14.1954 9.99844 14.5657 10.2453L32.0938 19.8734L27.5267 24.3172Z" fill="url(#paint1_linear_151_33)"/>
<path fill-rule="evenodd" clip-rule="evenodd" d="M31.9701 28.6375L27.5264 24.1938L32.0936 19.6266L38.3889 23.0828C38.8826 23.3297 39.1295 23.7 39.1295 24.0703C39.1295 24.4406 38.8826 24.811 38.3889 25.0578L31.9701 28.6375Z" fill="url(#paint2_linear_151_33)"/>
<path fill-rule="evenodd" clip-rule="evenodd" d="M13.208 38.5125L27.5268 24.1937L31.9705 28.6375L14.5658 38.1422C14.1955 38.389 13.9486 38.5125 13.208 38.5125C13.3314 38.5125 13.3314 38.5125 13.208 38.5125Z" fill="url(#paint3_linear_151_33)"/>
<path fill-rule="evenodd" clip-rule="evenodd" d="M87.7641 41.8453C87.1469 41.3516 86.6532 40.4875 86.4063 39.9938L88.3813 39.1297C88.5047 39.3766 88.7516 39.7469 88.9985 40.1172C89.4922 40.6109 90.2329 41.1047 90.9735 41.1047C91.7141 41.1047 92.5782 40.7344 93.0719 40.1172C93.4422 39.5 93.6891 38.8828 93.6891 38.0187V37.2781C92.2079 39.1297 89.1219 38.8828 87.3938 36.9078C85.5422 34.9328 85.5422 31.6 87.3938 29.625C89.2453 27.7734 91.961 27.5266 93.5657 29.2547V28.3906H95.6641V37.6484C95.6641 39.9937 94.8 41.3516 93.6891 42.2156C92.9485 42.8328 91.8376 43.0797 90.8501 43.0797C89.7391 42.9563 88.6282 42.5859 87.7641 41.8453ZM139.484 42.3391L141.583 37.4016L137.88 28.8844H139.978L142.57 34.9328L145.163 28.8844H147.261L141.583 42.3391H139.484ZM129.486 37.6484C128.869 37.0312 128.622 36.1672 128.622 35.3031C128.622 34.5625 128.869 33.8219 129.363 33.3281C130.227 32.4641 131.461 32.0938 132.819 32.0938C133.683 32.0938 134.423 32.2172 135.041 32.5875C135.041 31.1063 133.806 30.4891 132.819 30.4891C131.955 30.4891 131.091 30.9828 130.72 31.8469L128.869 31.1063C129.239 30.2422 130.227 28.6375 132.695 28.6375C133.93 28.6375 135.164 29.0078 135.905 29.8719C136.645 30.7359 136.892 31.7234 136.892 33.0812V38.2656H134.794V37.4016C134.547 37.7719 134.053 38.0188 133.683 38.2656C133.189 38.5125 132.572 38.6359 131.955 38.6359C131.214 38.5125 130.103 38.2656 129.486 37.6484ZM63.6938 33.2047C63.6938 30.7359 65.5454 28.0203 68.8782 28.0203C72.0875 28.0203 74.0625 30.7359 74.0625 33.2047C74.0625 35.6734 72.211 38.3891 68.8782 38.3891C65.5454 38.3891 63.6938 35.6734 63.6938 33.2047ZM74.8032 33.2047C74.8032 30.7359 76.6547 28.0203 79.9875 28.0203C83.1969 28.0203 85.1719 30.7359 85.1719 33.2047C85.1719 35.6734 83.3204 38.3891 79.9875 38.3891C76.7782 38.3891 74.8032 35.6734 74.8032 33.2047ZM49.7454 35.9203C46.6594 32.8344 46.7829 27.7734 49.8688 24.5641C51.4735 22.9594 53.4485 22.2188 55.5469 22.2188C57.5219 22.2188 59.4969 22.9594 60.9782 24.4406L59.4969 26.0453C57.275 23.8234 53.6954 23.9469 51.5969 26.1688C49.3751 28.5141 49.3751 32.0938 51.5969 34.4391C53.8188 36.7844 57.5219 36.9078 59.7438 34.5625C60.4844 33.8219 60.7313 32.8344 60.8547 31.8469H55.6704V29.625H62.9532C63.0766 30.1188 63.0766 30.7359 63.0766 31.3531C63.0766 33.2047 62.336 35.0563 61.1016 36.2906C59.7438 37.6484 57.7688 38.3891 55.7938 38.3891C53.5719 38.2656 51.3501 37.525 49.7454 35.9203ZM101.959 36.7844C100.108 34.8094 100.108 31.4766 101.959 29.3781C103.811 27.4031 106.897 27.4031 108.625 29.3781C109.242 29.9953 109.613 30.8594 109.983 31.7234L103.194 34.5625C103.564 35.4266 104.428 36.1672 105.663 36.1672C106.773 36.1672 107.514 35.7969 108.255 34.6859L110.106 35.9203C109.859 36.1672 109.613 36.4141 109.489 36.6609C107.391 38.7594 103.811 38.7594 101.959 36.7844ZM114.797 38.2656V24.5641H119.241C121.833 24.5641 123.931 26.4156 123.931 28.6375C123.931 30.8594 122.08 32.7109 119.734 32.7109H117.019V38.1422H114.797V38.2656ZM125.166 38.2656V24.5641H127.264V38.2656H125.166ZM97.2688 38.0187V22.7125H99.4907V38.0187H97.2688ZM134.917 34.1922C134.423 33.8219 133.683 33.6984 132.942 33.6984C131.461 33.6984 130.597 34.4391 130.597 35.3031C130.597 36.1672 131.461 36.6609 132.325 36.6609C133.559 36.6609 134.917 35.6734 134.917 34.1922ZM71.7172 33.2047C71.7172 31.7234 70.7297 30.1188 68.8782 30.1188C67.0266 30.1188 66.0391 31.7234 66.0391 33.2047C66.0391 34.6859 67.0266 36.2906 68.8782 36.2906C70.6063 36.2906 71.7172 34.6859 71.7172 33.2047ZM82.8266 33.2047C82.8266 31.7234 81.8391 30.1188 79.9875 30.1188C78.136 30.1188 77.1485 31.7234 77.1485 33.2047C77.1485 34.6859 78.136 36.2906 79.9875 36.2906C81.8391 36.2906 82.8266 34.6859 82.8266 33.2047ZM93.8125 34.0687C93.8125 33.9453 93.8126 33.8219 93.936 33.6984C93.936 33.575 93.936 33.3281 93.936 33.2047C93.936 33.0813 93.936 32.8344 93.936 32.7109V32.5875C93.936 32.4641 93.8125 32.2172 93.8125 32.0938C93.4422 30.8594 92.3313 29.9953 91.2204 29.9953C89.7391 29.9953 88.5047 31.4766 88.5047 33.0812C88.5047 34.8094 89.7391 36.1672 91.3438 36.1672C92.3313 36.2906 93.3188 35.4266 93.8125 34.0687ZM102.823 32.9578L107.391 30.9828C106.897 30.1187 106.156 29.8719 105.539 29.8719C103.688 29.9953 102.577 31.9703 102.823 32.9578ZM121.709 28.7609C121.709 27.5266 120.722 26.6625 119.364 26.6625H116.895V30.9828H119.488C120.722 30.9828 121.709 29.9953 121.709 28.7609Z" fill="white"/>
<path fill-rule="evenodd" clip-rule="evenodd" d="M141.09 39.8711H140.966V39.7469H141.09H140.966V39.8711H141.09Z" fill="white"/>
<path fill-rule="evenodd" clip-rule="evenodd" d="M141.336 39.8711C141.336 39.7469 141.336 39.7469 141.336 39.8711C141.212 39.7469 141.212 39.7469 141.336 39.8711C141.212 39.8711 141.212 39.8711 141.336 39.8711ZM141.336 39.7469C141.336 39.8711 141.336 39.8711 141.336 39.7469C141.212 39.8711 141.336 39.8711 141.336 39.7469C141.336 39.7469 141.212 39.7469 141.336 39.7469Z" fill="white"/>
<path fill-rule="evenodd" clip-rule="evenodd" d="M141.46 39.7469H141.336H141.46V39.8711V39.7469Z" fill="white"/>
<path d="M48.0171 12.4672C48.0171 10.2453 49.6218 8.88751 51.5968 8.88751C52.9546 8.88751 53.8187 9.5047 54.4359 10.3688L53.4484 10.9859C53.078 10.4922 52.4609 10.1219 51.5968 10.1219C50.239 10.1219 49.2515 11.1094 49.2515 12.5906C49.2515 14.0719 50.239 15.0594 51.5968 15.0594C52.3374 15.0594 52.9546 14.6891 53.2015 14.4422V13.3313H51.2265V12.2203H54.5593V14.8125C53.9421 15.5531 52.9546 16.0469 51.7202 16.0469C49.6218 16.0469 48.0171 14.5656 48.0171 12.4672Z" fill="white"/>
<path d="M56.0405 15.9234V9.01093H60.7312V10.1219H57.1515V11.85H60.6077V12.9609H57.1515V14.9359H60.7312V16.0469L56.0405 15.9234Z" fill="white"/>
<path d="M64.1873 15.9234V10.1219H62.0889V9.01093H67.5201V10.1219H65.4217V15.9234H64.1873Z" fill="white"/>
<path d="M71.7173 15.9234V9.01093H72.9517V15.9234H71.7173Z" fill="white"/>
<path d="M76.2845 15.9234V10.1219H74.186V9.01093H79.6173V10.1219H77.5188V15.9234H76.2845Z" fill="white"/>
<path d="M83.5674 12.4672C83.5674 10.3688 85.0486 8.88751 87.1471 8.88751C89.2455 8.88751 90.7268 10.3688 90.7268 12.4672C90.7268 14.5656 89.2455 16.0469 87.1471 16.0469C85.0486 16.0469 83.5674 14.4422 83.5674 12.4672ZM89.3689 12.4672C89.3689 10.9859 88.5049 9.99845 87.0236 9.99845C85.6658 9.99845 84.6783 11.1094 84.6783 12.4672C84.6783 13.9484 85.5424 14.9359 87.0236 14.9359C88.5049 14.9359 89.3689 13.825 89.3689 12.4672Z" fill="white"/>
<path d="M96.8985 15.9234L93.3188 10.9859V15.9234H92.0845V9.01093H93.3188L96.8985 13.825V9.01093H98.1329V15.9234H96.8985Z" fill="white"/>
<defs>
<linearGradient id="paint0_linear_151_33" x1="20.0799" y1="8.11429" x2="26.9902" y2="36.4937" gradientUnits="userSpaceOnUse">
<stop stop-color="#006884"/>
<stop offset="1" stop-color="#8AD1D0"/>
</linearGradient>
<linearGradient id="paint1_linear_151_33" x1="11.6535" y1="12.1509" x2="30.4851" y2="22.3314" gradientUnits="userSpaceOnUse">
<stop stop-color="#24BBB6"/>
<stop offset="1" stop-color="#DBE692"/>
</linearGradient>
<linearGradient id="paint2_linear_151_33" x1="33.321" y1="29.1561" x2="33.321" y2="19.3448" gradientUnits="userSpaceOnUse">
<stop stop-color="#FCC072"/>
<stop offset="1" stop-color="#F58A5B"/>
</linearGradient>
<linearGradient id="paint3_linear_151_33" x1="15.2999" y1="41.0665" x2="30.1762" y2="25.9267" gradientUnits="userSpaceOnUse">
<stop stop-color="#712B8F"/>
<stop offset="1" stop-color="#EA1D27"/>
</linearGradient>
</defs>
</svg>
